<svg width="721" height="336" viewBox="0 0 721 336" fill="none" xmlns="http://www.w3.org/2000/svg">
<path d="M164.429 46.1603C164.429 42.3113 168.595 39.9056 171.929 41.8301L269.429 98.1218C272.762 100.046 272.762 104.858 269.429 106.782L171.929 163.074C168.595 164.998 164.429 162.593 164.429 158.744L164.429 46.1603Z" fill="#38BDF8"/>
<path d="M269.004 151.714C271.672 150.999 274.424 152.58 275.031 155.274C280.088 177.7 278.87 201.122 271.459 222.952C263.513 246.363 248.802 266.891 229.188 281.941C209.574 296.991 185.938 305.887 161.268 307.504C136.599 309.121 112.004 303.387 90.5931 291.025C69.1827 278.664 51.9186 260.231 40.984 238.058C30.0495 215.885 25.9355 190.967 29.1625 166.456C32.3895 141.945 42.8123 118.941 59.1131 100.354C74.3134 83.0212 93.988 70.2547 115.938 63.4217C118.575 62.6009 121.32 64.1936 122.035 66.8609L153.093 182.772L269.004 151.714Z" fill="#38BDF8"/>
<path d="M249.686 156.89C254.805 175.994 254.144 196.187 247.786 214.916C241.429 233.644 229.66 250.067 213.969 262.107C198.278 274.148 179.369 281.264 159.633 282.558C139.898 283.851 120.221 279.264 103.093 269.375C85.9647 259.485 72.1535 244.739 63.4058 227.001C54.6582 209.262 51.3671 189.328 53.9486 169.719C56.5302 150.11 64.8685 131.707 77.9091 116.837C90.9498 101.967 108.107 91.2984 127.211 86.1794L153.093 182.772L249.686 156.89Z" fill="#E0F2FE"/>
<path d="M225.538 163.361C229.377 177.689 228.881 192.834 224.113 206.88C219.345 220.926 210.518 233.243 198.75 242.274C186.982 251.304 172.8 256.641 157.998 257.611C143.197 258.582 128.439 255.141 115.593 247.724C102.747 240.307 92.3884 229.248 85.8277 215.944C79.2669 202.64 76.7986 187.689 78.7347 172.983C80.6709 158.276 86.9247 144.474 96.7051 133.321C106.486 122.169 119.354 114.167 133.682 110.328L153.093 182.772L225.538 163.361Z" fill="#71717A"/>
<path d="M201.389 169.831C203.949 179.383 203.618 189.48 200.44 198.844C197.261 208.208 191.377 216.42 183.531 222.44C175.686 228.46 166.231 232.018 156.363 232.665C146.495 233.312 136.657 231.018 128.093 226.073C119.529 221.129 112.623 213.756 108.249 204.886C103.876 196.017 102.23 186.05 103.521 176.246C104.812 166.441 108.981 157.24 115.501 149.805C122.021 142.37 130.6 137.035 140.152 134.476L151.799 177.942C152.514 180.61 155.255 182.193 157.923 181.478L201.389 169.831Z" fill="#334155"/>
<path d="M390.125 238H337.5V146.625H390.125V162.5H356.875V182.562H387.812V198.438H356.875V222H390.125V238ZM465.562 168.25V178.625L455.375 181.812C456.208 183.229 456.792 184.708 457.125 186.25C457.458 187.75 457.625 189.375 457.625 191.125C457.625 194.667 457.062 197.917 455.938 200.875C454.812 203.792 453.146 206.292 450.938 208.375C448.729 210.458 445.958 212.083 442.625 213.25C439.292 214.375 435.417 214.938 431 214.938C430.042 214.938 429 214.896 427.875 214.812C426.75 214.688 425.917 214.562 425.375 214.438C424.542 215.146 423.875 215.896 423.375 216.688C422.917 217.438 422.688 218.354 422.688 219.438C422.688 220.312 422.958 221.021 423.5 221.562C424.042 222.062 424.75 222.479 425.625 222.812C426.5 223.104 427.521 223.312 428.688 223.438C429.854 223.521 431.062 223.562 432.312 223.562H443.188C446.562 223.562 449.583 223.958 452.25 224.75C454.917 225.5 457.167 226.667 459 228.25C460.875 229.833 462.312 231.854 463.312 234.312C464.312 236.729 464.812 239.625 464.812 243C464.812 246.958 464.021 250.521 462.438 253.688C460.854 256.896 458.479 259.604 455.312 261.812C452.188 264.062 448.292 265.771 443.625 266.938C438.958 268.146 433.562 268.75 427.438 268.75C422.688 268.75 418.542 268.292 415 267.375C411.458 266.5 408.5 265.208 406.125 263.5C403.75 261.833 401.958 259.812 400.75 257.438C399.583 255.062 399 252.375 399 249.375C399 246.833 399.438 244.625 400.312 242.75C401.188 240.875 402.354 239.271 403.812 237.938C405.271 236.604 406.917 235.521 408.75 234.688C410.625 233.854 412.542 233.208 414.5 232.75C413.625 232.375 412.75 231.854 411.875 231.188C411.042 230.521 410.271 229.75 409.562 228.875C408.896 228 408.333 227.042 407.875 226C407.458 224.917 407.25 223.792 407.25 222.625C407.25 221.292 407.438 220.083 407.812 219C408.229 217.917 408.812 216.917 409.562 216C410.312 215.042 411.25 214.146 412.375 213.312C413.5 212.479 414.771 211.625 416.188 210.75C412.521 209.167 409.604 206.625 407.438 203.125C405.312 199.625 404.25 195.5 404.25 190.75C404.25 187 404.833 183.646 406 180.688C407.167 177.729 408.875 175.229 411.125 173.188C413.375 171.104 416.167 169.521 419.5 168.438C422.833 167.354 426.667 166.812 431 166.812C431.833 166.812 432.771 166.875 433.812 167C434.854 167.083 435.875 167.208 436.875 167.375C437.917 167.5 438.875 167.646 439.75 167.812C440.625 167.979 441.312 168.125 441.812 168.25H465.562ZM415.562 247.875C415.562 248.917 415.771 249.917 416.188 250.875C416.646 251.875 417.375 252.75 418.375 253.5C419.375 254.25 420.688 254.833 422.312 255.25C423.938 255.708 425.938 255.938 428.312 255.938C434.812 255.938 439.708 255.021 443 253.188C446.292 251.354 447.938 248.896 447.938 245.812C447.938 243.188 446.917 241.438 444.875 240.562C442.833 239.688 439.667 239.25 435.375 239.25H426.562C425.438 239.25 424.229 239.375 422.938 239.625C421.646 239.917 420.458 240.396 419.375 241.062C418.292 241.729 417.375 242.604 416.625 243.688C415.917 244.812 415.562 246.208 415.562 247.875ZM422.438 191C422.438 194.792 423.146 197.729 424.562 199.812C425.979 201.896 428.125 202.938 431 202.938C434 202.938 436.167 201.896 437.5 199.812C438.833 197.729 439.5 194.792 439.5 191C439.5 187.25 438.833 184.271 437.5 182.062C436.208 179.854 434.042 178.75 431 178.75C425.292 178.75 422.438 182.833 422.438 191ZM494.25 202.938C494.25 209.896 495.229 215.146 497.188 218.688C499.146 222.188 502.333 223.938 506.75 223.938C511.125 223.938 514.292 222.167 516.25 218.625C518.208 215.083 519.188 209.854 519.188 202.938C519.188 195.979 518.208 190.792 516.25 187.375C514.292 183.917 511.083 182.188 506.625 182.188C502.25 182.188 499.083 183.917 497.125 187.375C495.208 190.792 494.25 195.979 494.25 202.938ZM538.625 202.938C538.625 208.771 537.875 213.938 536.375 218.438C534.917 222.938 532.792 226.729 530 229.812C527.25 232.896 523.875 235.25 519.875 236.875C515.917 238.458 511.458 239.25 506.5 239.25C501.875 239.25 497.625 238.458 493.75 236.875C489.875 235.25 486.521 232.896 483.688 229.812C480.896 226.729 478.708 222.938 477.125 218.438C475.542 213.938 474.75 208.771 474.75 202.938C474.75 197.146 475.479 192 476.938 187.5C478.438 183 480.562 179.229 483.312 176.188C486.104 173.104 489.479 170.771 493.438 169.188C497.396 167.604 501.875 166.812 506.875 166.812C511.5 166.812 515.75 167.604 519.625 169.188C523.5 170.771 526.833 173.104 529.625 176.188C532.458 179.229 534.667 183 536.25 187.5C537.833 192 538.625 197.146 538.625 202.938ZM603.625 146.625H623.188L594.688 238H573.562L545.125 146.625H564.688L580.188 201.625C580.396 202.333 580.667 203.521 581 205.188C581.375 206.854 581.75 208.688 582.125 210.688C582.542 212.688 582.938 214.688 583.312 216.688C583.688 218.688 583.979 220.375 584.188 221.75C584.396 220.375 584.688 218.688 585.062 216.688C585.438 214.688 585.833 212.708 586.25 210.75C586.667 208.75 587.062 206.917 587.438 205.25C587.854 203.583 588.167 202.375 588.375 201.625L603.625 146.625ZM632.438 150.062C632.438 148.271 632.708 146.792 633.25 145.625C633.792 144.417 634.521 143.458 635.438 142.75C636.396 142 637.5 141.479 638.75 141.188C640.042 140.896 641.396 140.75 642.812 140.75C644.229 140.75 645.562 140.896 646.812 141.188C648.062 141.479 649.146 142 650.062 142.75C651.021 143.458 651.771 144.417 652.312 145.625C652.896 146.792 653.188 148.271 653.188 150.062C653.188 151.812 652.896 153.292 652.312 154.5C651.771 155.708 651.021 156.688 650.062 157.438C649.146 158.146 648.062 158.667 646.812 159C645.562 159.292 644.229 159.438 642.812 159.438C641.396 159.438 640.042 159.292 638.75 159C637.5 158.667 636.396 158.146 635.438 157.438C634.521 156.688 633.792 155.708 633.25 154.5C632.708 153.292 632.438 151.812 632.438 150.062ZM652.312 238H633.25V168.125H652.312V238ZM717.188 238H665.812V226.75L694.375 182.688H667.75V168.125H716V180.5L688.375 223.438H717.188V238Z" fill="#334155"/>
</svg>
