<svg width="307" height="336" viewBox="0 0 307 336" fill="none" xmlns="http://www.w3.org/2000/svg">
<path d="M164.429 46.1603C164.429 42.3113 168.595 39.9056 171.929 41.8301L269.429 98.1218C272.762 100.046 272.762 104.858 269.429 106.782L171.929 163.074C168.595 164.998 164.429 162.593 164.429 158.744L164.429 46.1603Z" fill="#38BDF8"/>
<path d="M269.004 151.714C271.672 150.999 274.424 152.58 275.031 155.274C280.088 177.7 278.87 201.122 271.459 222.952C263.513 246.363 248.802 266.891 229.188 281.941C209.574 296.991 185.938 305.887 161.268 307.504C136.599 309.121 112.004 303.387 90.5931 291.025C69.1827 278.664 51.9186 260.231 40.984 238.058C30.0495 215.885 25.9355 190.967 29.1625 166.456C32.3895 141.945 42.8123 118.941 59.1131 100.354C74.3134 83.0212 93.988 70.2547 115.938 63.4217C118.575 62.6009 121.32 64.1936 122.035 66.8609L153.093 182.772L269.004 151.714Z" fill="#38BDF8"/>
<path d="M249.686 156.89C254.805 175.994 254.144 196.187 247.786 214.916C241.429 233.644 229.66 250.067 213.969 262.107C198.278 274.147 179.369 281.264 159.633 282.558C139.898 283.851 120.221 279.264 103.093 269.375C85.9647 259.485 72.1535 244.739 63.4058 227.001C54.6582 209.262 51.3671 189.328 53.9486 169.719C56.5302 150.11 64.8685 131.707 77.9091 116.837C90.9498 101.967 108.107 91.2984 127.211 86.1794L153.093 182.772L249.686 156.89Z" fill="#E0F2FE"/>
<path d="M225.538 163.361C229.377 177.689 228.881 192.834 224.113 206.88C219.345 220.926 210.519 233.243 198.75 242.274C186.982 251.304 172.8 256.641 157.998 257.611C143.197 258.582 128.439 255.141 115.593 247.724C102.747 240.307 92.3884 229.248 85.8277 215.944C79.2669 202.64 76.7986 187.689 78.7347 172.983C80.6709 158.276 86.9247 144.474 96.7051 133.321C106.486 122.169 119.354 114.167 133.682 110.328L153.093 182.772L225.538 163.361Z" fill="#71717A"/>
<path d="M201.389 169.831C203.949 179.383 203.618 189.48 200.44 198.844C197.261 208.208 191.377 216.42 183.531 222.44C175.686 228.46 166.231 232.018 156.363 232.665C146.495 233.312 136.657 231.018 128.093 226.073C119.529 221.129 112.623 213.756 108.249 204.886C103.876 196.017 102.23 186.05 103.521 176.246C104.812 166.441 108.981 157.24 115.501 149.805C122.021 142.37 130.6 137.035 140.152 134.476L151.799 177.942C152.514 180.61 155.255 182.193 157.923 181.478L201.389 169.831Z" fill="#334155"/>
</svg>
